# xmcd CD database file
#
# Track frame offsets:
#	150
#	20005
#	38677
#	56177
#	70962
#	86522
#	105835
#	125262
#	147665
#	156390
#	171475
#	196182
#	218297
#	246162
#	268525
#
# Disc length: 3862 seconds
#
# Revision: 0
# Processed by: cddbd v1.5.1PL0 Copyright (c) Steve Scherf et al.
# Submitted via: CDex 1.51
#
DISCID=d30f140f
DTITLE=Leo Gandelmann - Sem Limite CD 1
DYEAR=2001
DGENRE=Jazz
TTITLE0=Ocidente
TTITLE1=Visões
TTITLE2=As Rosas Não Falam
TTITLE3=Pérola Negra
TTITLE4=Lamentos
TTITLE5=Molambo
TTITLE6=Me Deixa em Paz
TTITLE7=Toda Menina Baiana
TTITLE8=Saxsambando
TTITLE9=Diana
TTITLE10=Clube da Esquina No. 2
TTITLE11=Cais
TTITLE12=Folhas Mortas
TTITLE13=Baganas
TTITLE14=A Rã
EXTD=YEAR: 2001
EXTT0=
EXTT1=
EXTT2=
EXTT3=
EXTT4=
EXTT5=
EXTT6=
EXTT7=
EXTT8=
EXTT9=
EXTT10=
EXTT11=
EXTT12=
EXTT13=
EXTT14=
PLAYORDER=
